/* XPM */
static char * imperium16_xpm[] = {
"16 16 51 1",
" 	c None",
".	c #AA0E14",
"+	c #350000",
"@	c #BE141B",
"#	c #D41820",
"$	c #C0151B",
"%	c #D41720",
"&	c #BF151B",
"*	c #D21820",
"=	c #BC141A",
"-	c #A50D12",
";	c #910507",
">	c #330000",
",	c #D1181F",
"'	c #BD141A",
")	c #D51820",
"!	c #B71319",
"~	c #E91B23",
"{	c #D01820",
"]	c #E61B23",
"^	c #A91117",
"/	c #E21A22",
"(	c #CA161E",
"_	c #B01117",
":	c #D21720",
"<	c #BE151A",
"[	c #A90E14",
"}	c #AF0F13",
"|	c #CE171F",
"1	c #9A070A",
"2	c #3E0000",
"3	c #A90F14",
"4	c #950609",
"5	c #A10D11",
"6	c #B21217",
"7	c #95070A",
"8	c #7E0203",
"9	c #300000",
"0	c #BE141A",
"a	c #96070B",
"b	c #860102",
"c	c #950E13",
"d	c #96070A",
"e	c #810303",
"f	c #310000",
"g	c #AA0F14",
"h	c #9E0A0D",
"i	c #9C0B0F",
"j	c #B31217",
"k	c #960709",
"l	c #5A0101",
"                ",
"                ",
"     .    +     ",
"    @      +    ",
"   #$       +   ",
"   %& *=-; >++  ",
"   ,' )!   +++  ",
"  ~{& ]^   +++  ",
"  ]*$ /(_  +++  ",
"   :<[}|_12+++  ",
"    @3456789+   ",
"    03abcdef    ",
"     ghijkl     ",
"                ",
"                ",
"                "};
