/* XPM */
static char * imperium32_xpm[] = {
"32 32 92 2",
"  	c None",
". 	c #A40C11",
"+ 	c #350000",
"@ 	c #B91319",
"# 	c #AF1016",
"$ 	c #C3151C",
"% 	c #C3161C",
"& 	c #D81921",
"* 	c #BA141A",
"= 	c #D61820",
"- 	c #AB0F14",
"; 	c #8B0304",
"> 	c #E21B23",
", 	c #D71820",
"' 	c #CB171E",
") 	c #C1151C",
"! 	c #B71319",
"~ 	c #9F0B10",
"{ 	c #95070A",
"] 	c #8C0304",
"^ 	c #E31B23",
"/ 	c #CE171F",
"( 	c #C4161D",
"_ 	c #D71921",
": 	c #CB171F",
"< 	c #C1151B",
"[ 	c #CC181F",
"} 	c #C3151D",
"| 	c #B81319",
"1 	c #CA171E",
"2 	c #C4151C",
"3 	c #E11A22",
"4 	c #CC171F",
"5 	c #D41820",
"6 	c #AB1217",
"7 	c #B71318",
"8 	c #EB1C24",
"9 	c #E91B23",
"0 	c #DE1A22",
"a 	c #970F14",
"b 	c #B71218",
"c 	c #EC1C24",
"d 	c #E21A22",
"e 	c #DD1A22",
"f 	c #900E12",
"g 	c #CC171E",
"h 	c #E81B23",
"i 	c #DD1921",
"j 	c #CF171F",
"k 	c #B61319",
"l 	c #AD1015",
"m 	c #A90E14",
"n 	c #AE1016",
"o 	c #A40D12",
"p 	c #A90F14",
"q 	c #9C090D",
"r 	c #970508",
"s 	c #2D0000",
"t 	c #A50D11",
"u 	c #9B0A0D",
"v 	c #A10B0E",
"w 	c #D51821",
"x 	c #9C090E",
"y 	c #8F0506",
"z 	c #770203",
"A 	c #300000",
"B 	c #C2151C",
"C 	c #A40D11",
"D 	c #9B090D",
"E 	c #910507",
"F 	c #A30D11",
"G 	c #C6151D",
"H 	c #900506",
"I 	c #590102",
"J 	c #880202",
"K 	c #960E12",
"L 	c #320000",
"M 	c #910608",
"N 	c #6F0101",
"O 	c #A11015",
"P 	c #930304",
"Q 	c #6C090C",
"R 	c #A80E13",
"S 	c #650202",
"T 	c #8D0303",
"U 	c #6C0304",
"V 	c #B01217",
"W 	c #900304",
"X 	c #390000",
"Y 	c #9D0A0E",
"Z 	c #AE0E12",
"` 	c #B21117",
"                                                                ",
"                                                                ",
"                                                                ",
"                                                                ",
"                      .                 + +                     ",
"                  @ #                     + + +                 ",
"                $ @                         + + +               ",
"                % @                           + +               ",
"            &   % *                           + +   +           ",
"            =   % *             -       ;     + +   +           ",
"          > ,   % *       ' ) ! - ~ { ] ;     + + + +           ",
"          ^ , / ( *     _ : < ! - ~ {         + + + + +         ",
"          > , [ } |       1 2 ! - ~         + + + + + +         ",
"          3 , 4 % @       5 6 7             + + + + +           ",
"        8   _ 4 % *     9 0 a b               + + + + +         ",
"        c d   4 %       9 e , f               + + +   +         ",
"          d _ g %   #   h i j $ k             + + + + +         ",
"          d , 4 % * l     e j $ k m       + + + + + + +         ",
"          d , 4 % | n o   e j $ k p q r s + + + + + +           ",
"            = 4 % @ # t u v w $ k p x y z A + + + + +           ",
"                B @ # C D E F G k p x H ] I + +                 ",
"              4 % @ n t D E J K ! p x H ; z L + + +             ",
"                % @ n C D M ; N O p x H ; z L + +               ",
"                  @ n C D M ; P Q R x H ; S + +                 ",
"                    n t D M T U V p x H W X                     ",
"                        Y Z ` 1 k p q y                         ",
"                                                                ",
"                                                                ",
"                                                                ",
"                                                                ",
"                                                                ",
"                                                                "};
