/* XPM */
static char * imperium64_xpm[] = {
"64 64 178 2",
"  	c None",
". 	c #99080B",
"+ 	c #350000",
"@ 	c #A70D13",
"# 	c #A20C10",
"$ 	c #9D0A0F",
"% 	c #B11117",
"& 	c #AC0F15",
"* 	c #A70D12",
"= 	c #A20C11",
"- 	c #B61318",
"; 	c #B11017",
"> 	c #AC1015",
", 	c #C0151B",
"' 	c #BC141A",
") 	c #B61218",
"! 	c #AD0F15",
"~ 	c #C5151C",
"{ 	c #C0151C",
"] 	c #C6161D",
"^ 	c #C1151C",
"/ 	c #C9161E",
"( 	c #C5161C",
"_ 	c #B61219",
": 	c #D41820",
"< 	c #CA161E",
"[ 	c #BB141A",
"} 	c #B81319",
"| 	c #D91921",
"1 	c #DA1921",
"2 	c #DF1A22",
"3 	c #B91319",
"4 	c #B31117",
"5 	c #AE1016",
"6 	c #A80E13",
"7 	c #9D0A0E",
"8 	c #97080B",
"9 	c #8D0405",
"0 	c #8B0304",
"a 	c #E41B23",
"b 	c #C4151D",
"c 	c #BE151A",
"d 	c #B9141A",
"e 	c #B41217",
"f 	c #A20C12",
"g 	c #930609",
"h 	c #E51B23",
"i 	c #CE181F",
"j 	c #C4161D",
"k 	c #BA141A",
"l 	c #98080B",
"m 	c #E61B23",
"n 	c #CF181F",
"o 	c #C5161D",
"p 	c #E11A22",
"q 	c #C3151C",
"r 	c #BE141A",
"s 	c #CF1720",
"t 	c #B71319",
"u 	c #DA1A22",
"v 	c #CF1820",
"w 	c #C9171E",
"x 	c #BF151B",
"y 	c #E01A22",
"z 	c #AF1319",
"A 	c #C8161D",
"B 	c #A31016",
"C 	c #AE1015",
"D 	c #E71B23",
"E 	c #E41A23",
"F 	c #73090D",
"G 	c #C1151B",
"H 	c #B41117",
"I 	c #EB1C24",
"J 	c #DE1A22",
"K 	c #9A1015",
"L 	c #9B0F14",
"M 	c #B41118",
"N 	c #D81921",
"O 	c #6F090D",
"P 	c #A21015",
"Q 	c #D21820",
"R 	c #D4181F",
"S 	c #6E090B",
"T 	c #6D080B",
"U 	c #E51A22",
"V 	c #D31820",
"W 	c #B11116",
"X 	c #CC161E",
"Y 	c #CB171D",
"Z 	c #B11218",
"` 	c #CF171F",
" .	c #B01116",
"..	c #C6161C",
"+.	c #EB1B23",
"@.	c #C0141C",
"#.	c #B31118",
"$.	c #AC0F14",
"%.	c #EA1B23",
"&.	c #A60E13",
"*.	c #B61319",
"=.	c #9F0B10",
"-.	c #A20D12",
";.	c #9F0B0F",
">.	c #99080C",
",.	c #B21117",
"'.	c #A70E12",
").	c #9D0B0F",
"!.	c #940609",
"~.	c #910405",
"{.	c #99090B",
"].	c #DD1A22",
"^.	c #940608",
"/.	c #8C0404",
"(.	c #860304",
"_.	c #360000",
":.	c #8F070A",
"<.	c #D91922",
"[.	c #820304",
"}.	c #310000",
"|.	c #C9161D",
"1.	c #900406",
"2.	c #980C0F",
"3.	c #D1171F",
"4.	c #680203",
"5.	c #330000",
"6.	c #8E0506",
"7.	c #890203",
"8.	c #A30F14",
"9.	c #910304",
"0.	c #370000",
"a.	c #830202",
"b.	c #991014",
"c.	c #C2151C",
"d.	c #8C0304",
"e.	c #580102",
"f.	c #6F0101",
"g.	c #930F13",
"h.	c #620102",
"i.	c #CA171E",
"j.	c #8F0304",
"k.	c #420000",
"l.	c #B01218",
"m.	c #610202",
"n.	c #750203",
"o.	c #580607",
"p.	c #580101",
"q.	c #270000",
"r.	c #C01319",
"s.	c #900304",
"t.	c #440101",
"u.	c #890304",
"v.	c #2E0000",
"w.	c #BF1319",
"x.	c #300000",
"y.	c #B71218",
"z.	c #5D0101",
"A.	c #850C10",
"B.	c #600202",
"C.	c #6A0102",
"D.	c #8A0D12",
"E.	c #BD141A",
"F.	c #850303",
"G.	c #860303",
"H.	c #8A0508",
"I.	c #9A0D12",
"J.	c #810303",
"K.	c #A90C11",
"L.	c #C5131A",
"M.	c #D41920",
"N.	c #D81922",
"O.	c #930608",
"P.	c #850304",
"Q.	c #CC171E",
"R.	c #C0141B",
"S.	c #B91419",
"T.	c #AC1014",
"U.	c #9E0A10",
"                                                                                                                                ",
"                                                                                                                                ",
"                                                                                                                                ",
"                                                                                                                                ",
"                                                                                                                                ",
"                                                                                                                                ",
"                                                                                                                                ",
"                                                  .                           +                                                 ",
"                                            @ # $                               + + +                                           ",
"                                        % & * =                                   + + + +                                       ",
"                                      - ; >                                         + + + +                                     ",
"                                  , ' ) % !                                           + + + + +                                 ",
"                                ~ { ' - %                                               + + + + +                               ",
"                                ] ^ ' )                                                   + + + +                               ",
"                              / ( ^ ' _                                                   + + + + +                             ",
"                          :   < ( ^ [ }                                                   + + + + +   +                         ",
"                        |     < ( ^ [                                                       + + + +   + +                       ",
"                        1 :   / ( ^ [                                                       + + + +   + +                       ",
"                      2 | :   / ( ^ [                                                       + + + +   + + +                     ",
"                      2 1 :   < ( ^ [                       3 4 5 6 = 7 8   9 0 0 0 0       + + + +   + + +                     ",
"                    a 2 1 :   < ( ^ [                 / b c d e 5 6 f 7 8 g 9 0 0 0 0       + + + +   + + +                     ",
"                    h 2 1 :   < ( ^ [               i / j c k e 5 6 f 7 l g 9 0 0           + + + + + + + + +                   ",
"                    m 2 1 : n   o ^ [         p 1 : i < q r k e 5 6 f 7 l g 9               + + +   + + + + +                   ",
"                    m 2 1 : s   ] ^ ' t         u :   / o r k e 5 6 f 7 l g               + + + +   + + + + +                   ",
"                    h 2 1 : v w o ^ [ )             2 x ] r k e 5 6 f 7 8                 + + + + + + + + + +                   ",
"                    h 2 1 : v w ] ^ ' )             y z A r k e 5 6                       + + + + + + + + + +                   ",
"                    h 2 1 : v / ( ^ ' )           m y B o c k e C                         + + + + + + + + + +                   ",
"                      2 1 : v / ( ^ ' )           D p E F G k H                           + + + + + + + + +                     ",
"                  I   J 1 : v / ( ^ ' t           D p | K L 3 M                           + + + + + + + + +   +                 ",
"                  I     | : v / ( ^ [             D p | N O P e                             + + + + + + +     +                 ",
"                  I h     : v / ( ^ [             D p | Q R S T                             + + + + + +     + +                 ",
"                  I U 2   V v / ( ^ [   W         D p | Q X Y Z                         +   + + + + +     + + +                 ",
"                  I U 2 |   ` w ( ^ [    .        D p | Q X ..{ d                       +   + + + + +   + + + +                 ",
"                  +.U 2 1 : n < ( ^ [   W !       D p | Q X ..@.d #.$.                + +   + + +   + + + + + +                 ",
"                  %.U 2 1 : s w o ^ [    .&       m p | Q X ..@.d 4 & &.              + +   + + + + + + + + + +                 ",
"                    h 2 1 : v / ( ^ ' *.  & *       p | Q X ..@.d 4 $.&.=.          + +   + + + + + + + + + +                   ",
"                    U 2 1 : v / ( ^ [ )   > * -.    p | Q X ..@.d 4 $.&.;.>.g     + + +   + + + + + + + + + +                   ",
"                    a 2 1 : v / ( ^ ' - ,.& '.= ).    | Q X ..@.d 4 $.&.;.>.!.~.+ + + + + + + + + + + + + + +                   ",
"                      2 | : v / ( ^ ' ) % & '.= $ {.  ].Q X ..@.d 4 $.&.;.>.^./.(._.+ + + + + + + + + + + +                     ",
"                        | : v / ( ^ ' ) ; > '.= $ {.!.:.<.X ..@.d 4 $.&.;.>.^./.0 [.}.+ + + + + + + + + +                       ",
"                              |.o { [ ) ; > '.= $ . !.1.2.3...@.d 4 $.&.;.>.^./.0 0 4.5.+ + + + + +                             ",
"                        | :         ' - % > '.= $ . !.6.7.8.A @.d 4 $.&.;.>.^./.0 0 9.0.+ + +         + +                       ",
"                          : s / o ^ '   % & '.= $ . !.6.0 a.b.c.d 4 $.&.;.>.^./.0 0 d.e.+   + + + + + +                         ",
"                            n / ( ^ [ ) ; > '.= $ . !.6.0 0 f.g.d 4 $.&.;.>.^./.0 0 0 h.+ + + + + + +                           ",
"                              i.( ^ ' ) ; > '.= $ . !.6.0 0 j.k.l.4 $.&.;.>.^./.0 0 0 m.+ + + + + +                             ",
"                                o ^ ' ) ; > '.= $ . !.6.0 0 0 n.o.) $.&.;.>.^./.0 0 d.p.+ + + + +                               ",
"                                  { [ ) ; > '.= $ . !.6.0 0 0 0 q.r.$.&.;.>.^./.0 0 s.t.+ + + +                                 ",
"                                    ' ) ; > '.= $ . !.6.0 0 0 u.v.w.$.&.;.>.^./.0 0 0 x.+ + +                                   ",
"                                      y.% > '.= $ . !.6.0 0 d.z.A.4 $.&.;.>.^./.0 0 B.+ + +                                     ",
"                                          & '.= $ . !.6.0 j.C.D.E.4 $.&.;.>.^./.0 F.}.+                                         ",
"                                              = $ {.g G.H.I.] { d 4 $.&.;.>.^./.J.0.                                            ",
"                                                  K.L.M.N.X ..@.d 4 $.&.;.>.O.P.                                                ",
"                                                          Q.] R.S.4 T.&.U.                                                      ",
"                                                                                                                                ",
"                                                                                                                                ",
"                                                                                                                                ",
"                                                                                                                                ",
"                                                                                                                                ",
"                                                                                                                                ",
"                                                                                                                                ",
"                                                                                                                                ",
"                                                                                                                                ",
"                                                                                                                                ",
"                                                                                                                                "};
