<svg id="svg" version="1.1" width="400" height="400" viewBox="0 0 400 400" xmlns="http://www.w3.org/2000/svg" xmlns:xlink="http://www.w3.org/1999/xlink" ><g id="svgg"><path id="path0" d="M162.434 44.262 C 157.599 45.680,148.983 48.734,145.503 50.263 L 144.092 50.882 144.198 56.188 L 144.305 61.493 142.435 63.441 C 141.406 64.513,142.152 63.905,144.092 62.090 C 150.845 55.773,159.481 49.353,167.813 44.456 C 169.220 43.629,170.370 42.892,170.370 42.817 C 170.370 42.315,166.949 42.938,162.434 44.262 M249.030 117.653 C 247.769 117.937,246.499 118.272,246.208 118.397 C 245.917 118.523,245.520 118.661,245.326 118.704 C 244.954 118.788,243.494 119.421,239.153 121.381 C 235.346 123.099,233.202 123.008,226.284 120.830 C 220.691 119.069,214.929 117.463,214.203 117.461 C 213.863 117.461,213.747 122.111,213.674 138.585 L 213.580 159.710 215.690 158.644 C 216.851 158.058,220.581 156.477,223.980 155.130 C 233.810 151.233,237.435 149.203,241.894 145.097 C 250.475 137.196,255.202 133.692,258.758 132.594 C 264.110 130.941,268.693 132.879,269.395 137.092 C 269.737 139.142,270.063 137.489,270.155 133.248 C 270.340 124.615,266.593 118.876,259.965 117.641 C 257.236 117.133,251.309 117.139,249.030 117.653 M222.840 214.343 C 223.190 214.484,223.280 226.344,223.280 271.987 C 223.280 329.064,223.285 329.453,223.980 329.453 C 227.078 329.453,240.889 325.532,243.145 324.013 C 243.763 323.596,245.379 322.649,246.737 321.908 C 261.492 313.854,269.816 299.870,271.639 280.071 C 273.106 264.129,269.017 254.237,255.232 240.388 C 252.335 237.478,249.953 234.981,249.938 234.839 C 249.924 234.697,249.583 234.351,249.182 234.070 C 248.780 233.789,247.907 233.050,247.242 232.428 C 243.869 229.276,223.438 214.062,222.679 214.137 C 222.525 214.153,222.597 214.245,222.840 214.343 M144.268 270.568 C 144.268 301.532,144.386 317.076,144.621 316.931 C 144.815 316.811,144.974 316.864,144.974 317.048 C 144.974 317.761,157.320 322.799,158.060 322.388 C 158.332 322.237,159.109 322.067,159.788 322.010 C 160.467 321.953,161.214 321.765,161.448 321.593 C 161.682 321.421,162.046 321.386,162.257 321.517 C 162.468 321.647,162.870 321.564,163.150 321.331 C 163.430 321.099,163.889 320.997,164.170 321.105 C 164.451 321.213,164.736 321.137,164.802 320.937 C 164.869 320.737,165.577 320.548,166.376 320.516 C 167.175 320.485,167.742 320.316,167.636 320.143 C 167.530 319.969,167.859 319.907,168.367 320.004 C 168.932 320.112,169.206 320.043,169.073 319.827 C 168.939 319.611,169.213 319.543,169.778 319.651 C 170.286 319.748,170.638 319.725,170.561 319.600 C 170.484 319.475,172.274 318.766,174.540 318.025 C 191.573 312.453,200.259 303.429,199.530 292.063 C 198.927 282.653,193.637 273.111,179.392 255.732 C 174.535 249.807,171.432 245.434,171.423 244.503 C 171.419 244.106,170.306 243.401,167.988 242.328 C 161.189 239.180,152.753 232.802,147.421 226.777 C 146.148 225.339,144.918 224.123,144.687 224.074 C 144.365 224.006,144.268 234.770,144.268 270.568 M192.416 268.430 C 193.764 269.788,194.946 270.899,195.043 270.899 C 195.140 270.899,194.117 269.788,192.769 268.430 C 191.421 267.072,190.239 265.961,190.142 265.961 C 190.045 265.961,191.069 267.072,192.416 268.430 " stroke="none" fill="#9a090c" fill-rule="evenodd"></path><path id="path1" d="M80.449 96.468 C 70.984 110.716,63.756 129.204,61.007 146.197 C 60.184 151.290,60.203 151.517,61.875 156.665 C 66.863 172.016,77.223 190.189,85.878 198.765 L 87.302 200.176 87.393 162.610 C 87.474 129.533,87.418 124.717,86.928 122.304 C 86.621 120.798,86.311 118.972,86.238 118.248 C 86.164 117.524,85.848 115.106,85.534 112.875 C 85.206 110.542,84.878 105.034,84.762 99.912 C 84.651 95.013,84.452 91.005,84.319 91.005 C 84.186 91.005,82.445 93.463,80.449 96.468 M156.874 136.329 C 147.862 140.989,142.625 142.054,135.985 140.577 C 132.472 139.795,132.449 139.926,135.754 141.924 C 143.973 146.893,155.663 149.135,160.361 146.644 C 160.967 146.323,161.558 146.156,161.675 146.273 C 162.153 146.751,162.270 145.187,162.178 139.557 L 162.081 133.637 156.874 136.329 M171.113 145.949 C 145.400 172.011,148.228 215.060,178.117 252.557 L 178.820 253.439 178.828 215.792 L 178.836 178.144 177.528 176.109 C 171.340 166.478,170.099 153.129,174.533 143.891 C 175.852 141.142,175.861 141.137,171.113 145.949 M55.940 168.476 C 54.322 172.690,55.800 202.386,58.231 214.516 C 62.173 234.193,68.256 243.358,81.129 249.016 C 85.773 251.058,85.795 251.067,86.684 251.260 L 87.478 251.433 87.478 229.244 C 87.478 208.421,87.439 207.017,86.849 206.437 C 86.503 206.098,84.717 204.617,82.881 203.146 C 73.160 195.362,64.478 184.530,58.685 172.962 C 57.016 169.628,56.083 168.103,55.940 168.476 M75.216 255.795 C 76.001 257.840,83.446 268.129,86.243 271.035 L 87.302 272.134 87.398 265.987 C 87.512 258.744,88.175 259.718,81.658 257.558 C 78.748 256.594,76.062 255.682,75.688 255.531 C 75.164 255.319,75.057 255.379,75.216 255.795 M177.778 317.891 C 176.081 318.537,164.872 321.273,161.439 321.879 C 159.534 322.215,158.106 322.620,158.265 322.777 C 159.191 323.696,177.967 327.995,178.541 327.420 C 178.715 327.246,178.812 324.956,178.758 322.330 L 178.660 317.555 177.778 317.891 " stroke="none" fill="#db1b23" fill-rule="evenodd"></path><path id="path2" d="M125.750 59.949 C 123.160 61.272,116.979 65.062,113.668 67.357 L 110.053 69.864 110.053 164.695 L 110.053 259.526 111.376 259.879 C 120.144 262.216,125.253 263.510,126.114 263.610 L 127.160 263.732 126.984 246.416 L 126.808 229.101 124.775 224.389 C 119.542 212.261,118.312 201.908,120.310 186.833 C 120.524 185.218,121.766 180.750,123.300 176.075 C 124.743 171.676,125.925 167.879,125.925 167.637 C 125.926 167.394,126.067 167.196,126.239 167.196 C 127.021 167.196,127.281 159.130,126.555 157.383 C 126.338 156.863,126.134 156.358,126.101 156.261 C 126.068 156.164,125.948 155.847,125.834 155.556 C 116.141 130.840,116.386 104.837,126.496 85.282 C 126.901 84.498,126.976 82.025,126.900 71.865 L 126.808 59.408 125.750 59.949 M193.576 119.595 C 191.498 120.118,188.204 121.068,186.257 121.706 L 182.716 122.866 182.716 150.477 L 182.716 178.089 186.684 182.108 C 189.898 185.363,196.857 191.534,197.312 191.534 C 197.371 191.534,197.436 190.860,197.456 190.035 C 197.476 189.211,197.597 187.663,197.725 186.596 C 198.214 182.528,198.288 118.636,197.805 118.640 C 197.557 118.642,195.654 119.071,193.576 119.595 M126.750 192.240 C 126.750 193.695,126.812 194.290,126.888 193.563 C 126.964 192.835,126.964 191.645,126.888 190.917 C 126.812 190.190,126.750 190.785,126.750 192.240 M196.386 233.939 L 196.296 272.134 197.656 273.721 C 208.974 286.932,208.995 300.646,197.710 308.332 L 196.477 309.171 196.475 319.489 L 196.473 329.806 195.503 329.861 C 194.969 329.891,195.882 330.034,197.531 330.178 C 201.292 330.508,208.577 330.582,209.319 330.297 C 209.824 330.103,209.876 324.252,209.875 267.599 L 209.873 205.115 207.494 203.452 C 206.185 202.538,203.487 200.599,201.498 199.143 C 199.508 197.687,197.565 196.327,197.178 196.120 C 196.479 195.746,196.475 195.923,196.386 233.939 M126.752 207.584 C 126.754 209.136,126.816 209.727,126.890 208.897 C 126.965 208.068,126.964 206.798,126.888 206.075 C 126.812 205.353,126.751 206.032,126.752 207.584 M110.053 279.408 C 110.053 292.084,109.968 294.915,109.595 294.664 C 108.044 293.621,111.647 296.525,115.520 299.440 C 120.916 303.501,125.081 306.325,126.190 306.675 L 126.984 306.926 126.984 286.305 L 126.984 265.685 126.117 265.467 C 125.641 265.348,123.220 265.089,120.738 264.892 C 118.256 264.695,114.960 264.379,113.413 264.189 C 111.866 264.000,110.477 263.845,110.327 263.845 C 110.176 263.845,110.053 270.848,110.053 279.408 " stroke="none" fill="#b8141a" fill-rule="evenodd"></path><path id="path3" d="M106.614 72.788 C 104.820 74.213,102.272 76.406,100.952 77.662 L 98.553 79.945 97.408 85.740 C 92.358 111.308,93.987 135.455,102.082 155.026 L 102.666 156.437 101.739 155.379 C 97.127 150.117,91.452 138.458,88.709 128.611 L 87.519 124.339 87.499 162.158 C 87.479 198.012,87.446 199.968,86.861 199.780 C 85.783 199.436,96.341 209.597,99.721 212.157 C 101.505 213.508,102.893 214.685,102.805 214.773 C 102.523 215.055,92.683 209.960,89.625 207.947 C 87.993 206.873,86.581 206.070,86.488 206.163 C 86.395 206.256,86.580 206.433,86.898 206.555 C 87.428 206.758,87.478 208.719,87.478 229.105 L 87.478 251.433 86.684 251.272 C 85.081 250.946,90.294 253.003,96.296 255.066 C 102.544 257.212,109.721 259.356,109.937 259.141 C 110.001 259.076,110.014 216.537,109.965 164.610 L 109.877 70.197 106.614 72.788 M179.189 124.480 C 173.444 126.792,157.743 135.238,161.656 133.911 C 162.251 133.709,162.282 134.069,162.185 140.005 L 162.081 146.313 164.202 145.514 C 167.558 144.250,172.280 141.730,177.057 138.653 L 177.923 138.095 176.961 139.506 C 176.432 140.282,175.836 141.517,175.637 142.251 C 175.438 142.984,175.126 143.491,174.943 143.379 C 174.761 143.266,174.692 143.384,174.791 143.643 C 174.890 143.901,174.655 145.033,174.268 146.158 C 171.291 154.810,173.503 164.862,180.556 174.735 L 182.540 177.513 182.632 163.889 C 182.683 156.395,182.683 144.159,182.632 136.698 L 182.540 123.131 179.189 124.480 M178.836 215.937 L 178.836 253.508 181.191 256.295 C 182.487 257.829,186.453 262.019,190.004 265.608 L 196.462 272.134 196.467 234.008 L 196.473 195.881 193.386 193.454 C 189.511 190.407,184.226 185.160,181.329 181.481 C 180.106 179.929,179.045 178.593,178.971 178.513 C 178.897 178.432,178.836 195.273,178.836 215.937 M87.405 265.599 C 87.503 271.580,87.472 271.934,86.876 271.709 C 84.679 270.881,99.363 286.047,107.018 292.514 L 109.877 294.928 109.968 279.508 C 110.019 271.027,110.019 264.049,109.968 264.003 C 109.918 263.956,107.416 263.497,104.409 262.982 C 99.737 262.182,88.862 259.851,87.680 259.396 C 87.417 259.295,87.333 261.181,87.405 265.599 M194.709 310.472 C 192.483 311.972,186.725 314.691,182.469 316.252 L 178.871 317.571 178.765 322.635 C 178.676 326.891,178.744 327.726,179.189 327.864 C 180.522 328.281,189.605 329.496,192.857 329.693 L 196.473 329.912 196.473 319.630 C 196.473 313.975,196.433 309.360,196.384 309.375 C 196.336 309.390,195.582 309.884,194.709 310.472 " stroke="none" fill="#c7141c" fill-rule="evenodd"></path><path id="path4" d="M235.626 42.833 C 235.626 42.917,237.015 43.820,238.713 44.838 C 284.007 72.021,298.980 114.560,278.653 158.310 L 277.156 161.531 279.285 166.921 C 287.473 187.646,288.656 202.581,283.385 218.684 C 282.421 221.628,274.145 239.009,273.857 238.695 C 273.821 238.656,274.472 236.243,275.304 233.333 C 277.732 224.842,278.641 219.079,279.034 209.700 C 279.348 202.217,279.131 184.243,278.733 184.642 C 278.638 184.737,277.963 187.160,277.234 190.026 C 272.780 207.543,264.164 222.503,252.919 232.247 L 250.102 234.687 255.827 240.547 C 264.263 249.181,269.946 257.910,271.107 264.015 C 271.181 264.406,271.440 265.600,271.682 266.667 C 272.316 269.467,272.191 279.369,271.459 284.303 C 268.937 301.315,262.001 312.723,249.318 320.723 C 247.549 321.839,246.194 322.751,246.306 322.751 C 247.316 322.751,266.709 314.153,272.281 311.234 C 289.688 302.116,310.184 284.197,323.460 266.490 C 326.978 261.798,331.014 255.764,330.786 255.536 C 330.716 255.466,328.345 256.187,325.518 257.138 C 312.146 261.636,294.797 264.658,279.718 265.116 L 273.898 265.293 282.011 263.200 C 309.620 256.079,329.158 248.570,334.945 242.857 C 342.982 234.923,347.969 220.092,349.950 198.236 C 350.432 192.912,350.547 173.992,350.120 170.224 L 349.843 167.784 346.945 173.398 C 337.249 192.179,319.364 209.271,304.047 214.395 L 302.822 214.805 303.877 214.016 C 320.066 201.911,333.491 183.909,341.556 163.492 C 344.914 154.991,345.743 151.724,345.305 148.728 C 342.926 132.483,337.202 116.176,328.819 101.764 C 326.935 98.525,321.945 91.005,321.680 91.005 C 321.551 91.005,321.352 94.696,321.238 99.206 C 320.645 122.709,314.278 143.442,303.877 155.732 L 302.982 156.790 304.009 154.497 C 312.075 136.496,313.648 107.503,307.897 82.826 C 307.186 79.778,307.169 79.749,304.648 77.359 C 293.628 66.913,276.908 56.836,258.313 49.434 C 247.794 45.246,235.626 41.706,235.626 42.833 M172.337 152.882 C 170.600 167.088,178.965 182.330,195.127 194.407 L 197.002 195.808 197.225 194.818 C 197.766 192.411,197.645 192.160,194.925 190.028 C 181.164 179.243,173.432 167.036,172.864 155.203 C 172.637 150.465,172.635 150.453,172.337 152.882 M172.701 246.513 C 173.068 247.166,175.353 250.158,177.778 253.161 C 190.940 269.463,194.715 275.081,197.692 282.798 C 203.493 297.843,196.916 310.019,179.445 316.577 C 176.286 317.764,178.016 317.476,181.694 316.204 C 210.837 306.124,213.705 290.169,190.598 266.667 C 183.565 259.513,179.891 255.375,175.564 249.735 C 172.242 245.405,171.797 244.905,172.701 246.513 " stroke="none" fill="#340404" fill-rule="evenodd"></path><path id="path5" d="M255.026 240.035 C 256.862 241.878,258.443 243.386,258.540 243.386 C 258.637 243.386,257.215 241.878,255.379 240.035 C 253.544 238.192,251.963 236.684,251.866 236.684 C 251.769 236.684,253.191 238.192,255.026 240.035 M193.279 307.848 L 192.063 309.171 193.386 307.955 C 194.617 306.824,194.871 306.526,194.602 306.526 C 194.543 306.526,193.948 307.121,193.279 307.848 M257.311 314.021 L 254.497 316.931 257.407 314.118 C 260.110 311.504,260.478 311.111,260.221 311.111 C 260.168 311.111,258.858 312.421,257.311 314.021 " stroke="none" fill="#790708" fill-rule="evenodd"></path><path id="path6" d="M187.654 183.598 C 189.295 185.247,190.716 186.596,190.813 186.596 C 190.910 186.596,189.648 185.247,188.007 183.598 C 186.367 181.949,184.945 180.600,184.848 180.600 C 184.751 180.600,186.014 181.949,187.654 183.598 " stroke="none" fill="#5c0404" fill-rule="evenodd"></path><path id="path7" d="M142.649 51.550 C 142.564 51.688,141.902 51.985,141.177 52.210 C 140.452 52.435,136.962 54.044,133.422 55.786 L 126.984 58.953 126.984 71.707 C 126.984 83.355,127.032 84.392,127.534 83.676 C 127.836 83.244,127.969 82.693,127.830 82.451 C 127.690 82.209,127.701 82.123,127.853 82.260 C 128.005 82.397,128.995 81.130,130.054 79.444 C 133.337 74.215,140.457 65.112,143.339 62.461 C 144.650 61.254,144.827 51.148,143.536 51.245 C 143.133 51.276,142.734 51.413,142.649 51.550 M202.469 117.650 C 201.014 117.920,199.466 118.229,199.030 118.336 L 198.236 118.532 198.275 150.536 C 198.296 168.138,198.442 181.905,198.600 181.129 C 199.393 177.214,199.477 176.888,200.279 174.602 C 202.233 169.036,204.808 165.753,210.363 161.750 L 213.757 159.304 213.757 138.420 C 213.757 122.032,213.662 117.502,213.316 117.377 C 212.297 117.011,204.912 117.196,202.469 117.650 M127.007 161.552 C 127.014 163.395,126.922 165.300,126.803 165.785 C 126.685 166.270,127.083 165.529,127.689 164.139 L 128.791 161.611 127.893 159.906 L 126.996 158.201 127.007 161.552 M126.979 186.772 C 126.600 199.553,127.000 217.566,127.703 219.400 C 127.740 219.497,127.745 219.840,127.714 220.161 C 127.618 221.143,129.390 229.258,130.671 233.704 C 131.336 236.013,131.842 237.941,131.794 237.988 C 131.747 238.036,130.473 235.738,128.964 232.882 C 127.454 230.026,126.352 228.007,126.514 228.395 C 127.035 229.645,127.069 263.214,126.550 263.589 C 126.233 263.817,126.283 263.853,126.720 263.713 C 127.059 263.604,127.337 263.686,127.337 263.897 C 127.337 264.108,127.654 264.197,128.042 264.095 C 128.430 263.994,128.748 264.032,128.748 264.180 C 128.748 264.329,129.422 264.612,130.247 264.811 C 131.678 265.155,131.609 265.175,128.748 265.254 C 127.099 265.300,126.027 265.410,126.367 265.499 C 126.946 265.650,126.984 266.940,126.984 286.307 C 126.984 304.822,126.928 306.932,126.437 306.744 C 126.123 306.623,125.981 306.682,126.105 306.882 C 126.223 307.074,126.638 307.231,127.026 307.231 C 127.414 307.231,127.656 307.353,127.564 307.501 C 127.335 307.872,132.813 311.106,138.977 314.240 L 144.092 316.840 144.181 270.393 C 144.240 239.656,144.390 224.019,144.622 224.163 C 144.815 224.283,144.974 224.212,144.974 224.007 C 144.974 223.801,144.840 223.633,144.676 223.633 C 144.178 223.633,138.820 215.248,136.562 210.935 C 133.398 204.891,129.932 195.858,128.542 190.035 C 128.461 189.696,128.306 189.061,128.198 188.624 C 128.089 188.188,127.918 187.373,127.817 186.814 C 127.369 184.342,127.052 184.327,126.979 186.772 M186.229 187.037 C 187.094 187.959,187.848 188.713,187.904 188.713 C 188.169 188.713,187.889 188.396,186.332 186.934 L 184.656 185.362 186.229 187.037 M209.877 267.666 C 209.877 317.283,209.786 330.136,209.436 330.278 C 208.176 330.786,215.000 330.455,222.399 329.648 C 223.100 329.572,223.105 329.277,223.193 272.147 L 223.283 214.722 222.311 213.877 C 221.364 213.052,210.720 205.583,210.159 205.350 C 210.004 205.285,209.877 233.327,209.877 267.666 " stroke="none" fill="#ac141c" fill-rule="evenodd"></path><path id="path8" d="M272.085 273.721 C 272.085 275.564,272.144 276.318,272.217 275.397 C 272.290 274.475,272.290 272.967,272.217 272.046 C 272.144 271.124,272.085 271.878,272.085 273.721 M199.757 293.298 C 199.759 294.462,199.824 294.896,199.903 294.262 C 199.981 293.628,199.980 292.675,199.899 292.145 C 199.819 291.615,199.755 292.134,199.757 293.298 M257.496 314.109 C 256.639 314.982,256.017 315.697,256.114 315.697 C 256.211 315.697,256.992 314.982,257.848 314.109 C 258.705 313.236,259.327 312.522,259.230 312.522 C 259.133 312.522,258.352 313.236,257.496 314.109 " stroke="none" fill="#401820" fill-rule="evenodd"></path></g></svg>